M48
; DRILL file KiCad 10.0.6 date 2026-10-07T21:09:08
; FORMAT={-:-/ absolute / metric / decimal}
; #@! TF.CreationDate,2026-10-07T21:09:08+02:00
; #@! TF.GenerationSoftware,Kicad,Pcbnew,10.0.6
; #@! TF.FileFunction,Plated,1,2,PTH
FMAT,2
METRIC
; #@! TA.AperFunction,Plated,PTH,ComponentDrill
T1C0.800
; #@! TA.AperFunction,Plated,PTH,ComponentDrill
T2C0.840
; #@! TA.AperFunction,Plated,PTH,ComponentDrill
T3C1.000
; #@! TA.AperFunction,Plated,PTH,ComponentDrill
T4C1.100
%
G90
G05
T1
X132.69Y-97.5
X140.31Y-97.5
T2
X114.125Y-79.115
X114.125Y-81.655
X114.125Y-84.195
X114.125Y-86.735
X114.125Y-89.275
X114.125Y-91.815
X114.125Y-94.355
X114.125Y-96.895
X129.365Y-79.115
X129.365Y-81.655
X129.365Y-84.195
X129.365Y-86.735
X129.365Y-89.275
X129.365Y-91.815
X129.365Y-94.355
X129.365Y-96.895
T3
X134.46Y-93.5
X137.0Y-93.5
X139.54Y-93.5
T4
X113.375Y-102.635
X123.535Y-102.635
X132.96Y-103.45
X135.5Y-103.45
X138.04Y-103.45
M30
